<svg width="71" height="70" viewBox="0 0 71 70" fill="none" xmlns="http://www.w3.org/2000/svg">
<path d="M26.6893 42.9154C25.0031 43.1159 23.5906 41.7249 23.5906 40.0268V11.2241C23.5906 9.31533 25.3497 7.89192 27.2165 8.29017L29.8895 8.86042C31.274 9.15577 32.2636 10.3788 32.2636 11.7944V39.4271C32.2636 40.7382 31.4157 41.9137 30.1477 42.2475C28.9402 42.5653 27.8658 42.7755 26.6893 42.9154Z" fill="url(#paint0_linear_171_1092)"/>
<path d="M38.6014 40.328C36.8189 40.8146 35.1546 39.3766 35.1546 37.5288V13.519C35.1546 11.579 36.9683 10.1491 38.8547 10.6018L41.5278 11.2434C42.8766 11.5671 43.8277 12.7734 43.8277 14.1605V25.094V36.422C43.8277 37.6183 43.1199 38.7091 42.0103 39.1562C40.8007 39.6435 39.7383 40.0177 38.6014 40.328Z" fill="url(#paint1_linear_171_1092)"/>
<path d="M50.3832 36.211C48.461 37.0076 46.3717 35.5007 46.3717 33.42V16.3976C46.3717 14.4254 48.2421 12.9897 50.1473 13.4995L52.3578 14.0911C53.6698 14.4422 54.5822 15.6309 54.5822 16.9891V32.3525C54.5822 33.3777 54.0646 34.3432 53.173 34.8491C52.1772 35.4141 51.2917 35.8346 50.3832 36.211Z" fill="url(#paint2_linear_171_1092)"/>
<path d="M60.326 30.5001C58.5696 32.019 56.007 30.489 56.0364 28.1672L56.1527 18.9817C56.1767 17.0857 58.0388 15.7614 59.8376 16.361C60.9808 16.7421 61.7519 17.812 61.7519 19.0171V27.9278C61.7519 28.7062 61.4562 29.462 60.888 29.994C60.6988 30.171 60.5123 30.3391 60.326 30.5001Z" fill="url(#paint3_linear_171_1092)"/>
<path d="M13.1829 48.1734C13.1829 47.1017 14.0253 46.2175 15.0946 46.1472C16.9954 46.0223 20.1221 45.7749 23.5906 45.3311C29.0556 44.6318 32.14 44.1921 37.4674 42.787C42.121 41.5597 49.1471 38.8552 49.1471 38.8552C49.1471 38.8552 55.8665 35.6055 58.514 33.6514C61.1615 31.6973 63.0123 30.2693 64.4117 27.2912C65.3014 25.3977 65.7285 23.3594 65.6837 22.0874C65.6194 20.2585 64.9899 18.7338 64.0648 17.3461C63.1396 15.9584 59.9017 13.9925 57.5889 12.9517L57.5822 12.9487C55.8421 12.1657 51.1037 10.0334 43.8277 8.44176C43.2162 8.30801 43.4242 7.38687 44.0388 7.50534C45.0968 7.7093 45.761 7.83663 45.9092 7.86356C47.1812 8.09484 51.5756 8.90433 58.1671 11.3328C61.0667 12.401 62.9551 13.2306 65.3368 14.9176C68.1122 16.8835 69.1826 19.3576 69.8468 22.5499C70.0152 23.3594 70.0212 25.355 69.8468 27.2912C69.3975 32.2803 67.2526 34.7761 64.4117 38.8552C62.4741 41.6374 60.7001 42.954 58.2827 45.3311C54.9886 48.5705 52.9429 50.2139 49.1471 52.8478C44.8442 55.8336 42.1658 57.8188 37.4674 60.1331C32.2008 62.7273 29.2215 63.5601 23.5906 65.2213C20.3478 66.1779 17.3402 66.7669 15.4007 67.0912C14.2217 67.2883 13.1829 66.3699 13.1829 65.1745V48.1734Z" fill="url(#paint4_linear_171_1092)"/>
<path d="M57.5889 12.9517C59.9017 13.9925 63.1396 15.9584 64.0648 17.3461C64.9899 18.7338 65.6194 20.2585 65.6837 22.0874C65.7285 23.3594 65.3014 25.3977 64.4117 27.2912C63.0123 30.2693 61.1615 31.6973 58.514 33.6514C55.8665 35.6055 49.1471 38.8552 49.1471 38.8552C49.1471 38.8552 42.121 41.5597 37.4674 42.787C32.14 44.1921 29.0556 44.6318 23.5906 45.3311C20.1221 45.7749 16.9954 46.0223 15.0946 46.1472C14.0253 46.2175 13.1829 47.1017 13.1829 48.1734V65.1745C13.1829 66.3699 14.2217 67.2883 15.4007 67.0912C17.3402 66.7669 20.3478 66.1779 23.5906 65.2213C29.2215 63.5601 32.2008 62.7273 37.4674 60.1331C42.1658 57.8188 44.8442 55.8336 49.1471 52.8478C52.9429 50.2139 54.9886 48.5705 58.2827 45.3311C60.7001 42.954 62.4741 41.6374 64.4117 38.8552C67.2526 34.7761 69.3975 32.2803 69.8468 27.2912C70.0212 25.355 70.0152 23.3594 69.8468 22.5499C69.1826 19.3576 68.1122 16.8835 65.3368 14.9176C62.9551 13.2306 61.0667 12.401 58.1671 11.3328C51.5756 8.90433 47.1812 8.09484 45.9092 7.86356C45.761 7.83663 45.0968 7.7093 44.0388 7.50534C43.4242 7.38686 43.2162 8.30801 43.8277 8.44176V8.44176C51.1037 10.0334 55.8421 12.1657 57.5822 12.9487M57.5889 12.9517L57.5822 12.9487M57.5889 12.9517C57.5867 12.9507 57.5844 12.9497 57.5822 12.9487M43.8277 25.094V14.1605C43.8277 12.7734 42.8766 11.5671 41.5278 11.2434L38.8547 10.6018C36.9683 10.1491 35.1546 11.579 35.1546 13.519V37.5288C35.1546 39.3766 36.8189 40.8146 38.6014 40.328C39.7383 40.0177 40.8007 39.6435 42.0103 39.1562C43.1199 38.7091 43.8277 37.6183 43.8277 36.422V25.094ZM61.752 27.9278V19.0171C61.752 17.812 60.9808 16.7421 59.8376 16.361V16.361C58.0388 15.7614 56.1767 17.0857 56.1527 18.9817L56.0364 28.1672C56.007 30.489 58.5696 32.019 60.326 30.5001C60.5123 30.3391 60.6988 30.171 60.888 29.994C61.4562 29.462 61.752 28.7062 61.752 27.9278ZM52.3578 14.0911L50.1473 13.4995C48.2421 12.9897 46.3718 14.4254 46.3718 16.3976V33.42C46.3718 35.5007 48.461 37.0076 50.3832 36.211C51.2917 35.8346 52.1772 35.4141 53.173 34.8491C54.0646 34.3432 54.5822 33.3777 54.5822 32.3525V16.9891C54.5822 15.6309 53.6698 14.4422 52.3578 14.0911ZM32.2636 39.4271V11.7944C32.2636 10.3788 31.274 9.15577 29.8895 8.86042L27.2165 8.29017C25.3497 7.89192 23.5906 9.31533 23.5906 11.2241V40.0268C23.5906 41.7249 25.0031 43.1159 26.6893 42.9154C27.8658 42.7755 28.9402 42.5653 30.1477 42.2475C31.4157 41.9137 32.2636 40.7382 32.2636 39.4271Z" stroke="white" stroke-opacity="0.28" stroke-width="2" stroke-linejoin="round"/>
<circle cx="12.0266" cy="57.4734" r="12.0266" fill="white"/>
<path d="M4.12464 49.386L4.28202 50.9283L7.96462 49.7007L9.72723 47.2457L7.77577 46.9624C6.20344 47.7968 5.35272 48.1789 4.12464 49.386Z" fill="#F2E9CE"/>
<path d="M0.851224 58.7656C1.1282 60.3702 1.35448 61.1472 2.07876 62.5741C2.97368 63.2027 3.47706 63.3561 4.37645 63.4239C4.29359 62.0608 4.32182 61.2796 4.59677 59.8358C3.61703 58.7073 3.10794 58.0632 2.33056 56.8771C1.65017 57.537 1.31961 57.9456 0.851224 58.7656Z" fill="#F2E9CE"/>
<path d="M9.0033 67.1065L9.94756 68.3655C11.1441 68.5449 12.2046 68.6512 14.7318 68.3655L16.1167 67.1065C14.8539 66.7737 14.1609 66.5633 13.0007 66.0678C11.4902 66.6723 10.6081 66.8725 9.0033 67.1065Z" fill="#F2E9CE"/>
<path d="M23.1986 57.1918L21.5619 59.9617L21.0268 63.5498H21.4045C22.7812 61.0061 23.2776 59.6499 23.1986 57.1918Z" fill="#F2E9CE"/>
<path d="M13.7246 65.2495C14.7536 65.7343 15.35 65.9426 16.4314 66.2567C17.9835 65.4113 18.7564 64.8842 19.9881 63.8646C20.0793 62.5026 20.1753 61.7445 20.4288 60.4023L17.7534 59.3951C16.4465 60.5185 15.6011 61.0576 14.0393 61.9761C13.7859 63.3452 13.6876 64.0649 13.7246 65.2495Z" fill="#F2E9CE"/>
<path d="M21.8452 51.8096C22.7062 53.548 23.0407 54.5519 23.3245 56.405M4.12464 49.386L4.28202 50.9283L7.96462 49.7007L9.72723 47.2457L7.77577 46.9624C6.20344 47.7968 5.35272 48.1789 4.12464 49.386ZM0.693848 57.2863L1.92138 55.9328C2.20431 54.1854 2.54646 53.2359 3.43219 51.5893L3.27481 50.2358C1.40455 53.0132 0.920064 54.151 0.693848 57.2863ZM0.851224 58.7656C1.1282 60.3702 1.35448 61.1471 2.07876 62.5741C2.97368 63.2027 3.47706 63.3561 4.37645 63.4239C4.29359 62.0608 4.32182 61.2796 4.59677 59.8358C3.61703 58.7073 3.10794 58.0632 2.33056 56.8771C1.65017 57.537 1.31961 57.9456 0.851224 58.7656ZM5.60398 60.2764C5.32065 61.5863 5.31731 62.3428 5.41513 63.7072C6.5723 64.9199 7.3074 65.4605 8.72002 66.2567C10.2364 65.9895 11.0627 65.7674 12.497 65.2495C12.5353 63.9207 12.592 63.2127 12.7174 61.9761C11.2474 61.0766 10.4766 60.4927 9.22363 59.2692L5.60398 60.2764ZM2.96006 63.959C4.85589 66.1508 5.76942 66.7673 8.72002 68.0823L8.18495 67.0121C6.48588 66.0591 5.85464 65.5254 4.72267 64.3052L2.96006 63.959ZM9.0033 67.1065L9.94756 68.3655C11.1441 68.5449 12.2046 68.6512 14.7318 68.3655L16.1167 67.1065C14.8539 66.7737 14.1609 66.5633 13.0007 66.0678C11.4902 66.6723 10.6081 66.8725 9.0033 67.1065ZM13.7246 65.2495C14.7536 65.7343 15.35 65.9426 16.4314 66.2567C17.9835 65.4113 18.7564 64.8842 19.9881 63.8646C20.0793 62.5026 20.1753 61.7445 20.4288 60.4023L17.7534 59.3951C16.4465 60.5185 15.6011 61.0576 14.0393 61.9761C13.7859 63.3452 13.6876 64.0649 13.7246 65.2495ZM23.1986 57.1918L21.5619 59.9617L21.0268 63.5498H21.4045C22.7812 61.0061 23.2776 59.6499 23.1986 57.1918ZM16.8092 67.1065L16.3685 67.7675C18.0287 67.0042 19.4531 65.9734 20.9009 64.3682H20.5232C19.1997 65.6502 18.4046 66.2737 16.8092 67.1065Z" stroke="#010326" stroke-width="0.5" stroke-linecap="round" stroke-linejoin="round"/>
<g opacity="0.99">
<path d="M9.7589 58.3248C10.1454 56.6703 10.4489 55.7282 11.2068 54.0127C13.0508 53.8147 14.0573 53.834 15.8021 54.1071C16.4733 55.7957 16.7441 56.7468 17.0611 58.4507C15.767 59.5523 14.9678 60.1221 13.3785 61.0317C11.8364 60.0601 11.0214 59.4823 9.7589 58.3248Z" fill="#F2E9CE"/>
<path d="M15.991 47.3085L18.509 50.1098L21.1844 51.2114L21.027 50.4245C19.5684 48.7612 18.6438 48.2322 16.8728 47.2189L16.8093 47.1826L15.991 47.3085Z" fill="#F2E9CE"/>
<path d="M9.3812 46.3957L10.4828 46.679C12.2489 46.5728 13.2553 46.5887 15.0782 46.7419L15.6133 46.6161C12.9048 46.0445 11.765 46.0102 9.3812 46.3957Z" fill="#F2E9CE"/>
<path d="M16.8093 53.8239C17.454 55.3781 17.7252 56.3 18.0369 58.0415C19.1163 58.3733 19.7402 58.6192 20.8696 59.1117C21.6136 58.1316 21.9467 57.5929 22.349 56.6566C22.1815 54.9144 21.9262 53.992 21.1844 52.439C20.1845 51.8512 19.6003 51.5786 18.509 51.2114C17.9878 52.2558 17.6094 52.8269 16.8093 53.8239Z" fill="#FFFCFC"/>
<path d="M11.3012 52.8481C12.948 52.7038 13.8998 52.7355 15.6448 52.974C16.4062 52.067 16.7866 51.521 17.3129 50.4245C16.6068 49.3312 16.1312 48.7357 15.0782 47.7177C13.4332 47.534 12.5208 47.4954 10.9235 47.6233C10.1408 48.6343 9.75268 49.1764 9.12939 50.1098L11.3012 52.8481Z" fill="white"/>
<path d="M16.8093 47.1826L15.991 47.3085L18.509 50.1098L21.1844 51.2114L21.027 50.4245C19.5684 48.7612 18.6438 48.2322 16.8728 47.2189M16.8093 47.1826L16.8728 47.2189M16.8093 47.1826C16.8306 47.1948 16.8518 47.2069 16.8728 47.2189M11.2068 54.0127C10.4489 55.7282 10.1454 56.6703 9.7589 58.3248C11.0214 59.4823 11.8364 60.0601 13.3785 61.0317C14.9678 60.1221 15.767 59.5523 17.0611 58.4507C16.7441 56.7468 16.4733 55.7957 15.8021 54.1071C14.0573 53.834 13.0508 53.8147 11.2068 54.0127ZM11.3012 52.8481C12.948 52.7038 13.8998 52.7355 15.6448 52.974C16.4062 52.067 16.7866 51.521 17.3129 50.4245C16.6068 49.3312 16.1312 48.7357 15.0782 47.7177C13.4332 47.534 12.5208 47.4954 10.9235 47.6233C10.1408 48.6343 9.75268 49.1764 9.12939 50.1098L11.3012 52.8481ZM16.8093 53.8239C17.454 55.3781 17.7252 56.3 18.0369 58.0415C19.1163 58.3733 19.7402 58.6192 20.8696 59.1117C21.6136 58.1316 21.9467 57.5929 22.349 56.6566C22.1815 54.9144 21.9262 53.992 21.1844 52.439C20.1845 51.8512 19.6003 51.5786 18.509 51.2114C17.9878 52.2558 17.6094 52.8269 16.8093 53.8239ZM9.3812 46.3957L10.4828 46.679C12.2489 46.5728 13.2553 46.5887 15.0782 46.7419L15.6133 46.6161C12.9048 46.0445 11.765 46.0102 9.3812 46.3957Z" stroke="#010326" stroke-width="0.5" stroke-linejoin="round"/>
</g>
<path d="M2.9917 56.0149C3.36807 54.4598 3.64578 53.5989 4.31745 52.0926L7.92003 50.9595L10.168 53.7196C9.47023 55.3221 9.14958 56.2249 8.75583 57.8453L5.18207 58.8912L2.9917 56.0149Z" stroke="#010326" stroke-width="0.5" stroke-linejoin="round"/>
<defs>
<linearGradient id="paint0_linear_171_1092" x1="37.6473" y1="0" x2="37.6473" y2="67.4185" gradientUnits="userSpaceOnUse">
<stop stop-color="#3457BF"/>
<stop offset="1" stop-color="#010326"/>
</linearGradient>
<linearGradient id="paint1_linear_171_1092" x1="37.6473" y1="0" x2="37.6473" y2="67.4185" gradientUnits="userSpaceOnUse">
<stop stop-color="#3457BF"/>
<stop offset="1" stop-color="#010326"/>
</linearGradient>
<linearGradient id="paint2_linear_171_1092" x1="37.6473" y1="0" x2="37.6473" y2="67.4185" gradientUnits="userSpaceOnUse">
<stop stop-color="#3457BF"/>
<stop offset="1" stop-color="#010326"/>
</linearGradient>
<linearGradient id="paint3_linear_171_1092" x1="37.6473" y1="0" x2="37.6473" y2="67.4185" gradientUnits="userSpaceOnUse">
<stop stop-color="#3457BF"/>
<stop offset="1" stop-color="#010326"/>
</linearGradient>
<linearGradient id="paint4_linear_171_1092" x1="37.6473" y1="0" x2="37.6473" y2="67.4185" gradientUnits="userSpaceOnUse">
<stop stop-color="#F21616"/>
<stop offset="1" stop-color="#F26716" stop-opacity="0.44"/>
</linearGradient>
</defs>
</svg>
